Cantarell-Regular.ufo
<glyph name="comma" format="1">
  <advance width="246"/>
  <unicode hex="002C"/>
  <outline>
    <contour>
      <point x="124" y="-174" type="line"/>
      <point x="160" y="-84"/>
      <point x="181" y="20"/>
      <point x="181" y="107" type="curve"/>
      <point x="98" y="107" type="line"/>
      <point x="98" y="17"/>
      <point x="84" y="-88"/>
      <point x="61" y="-174" type="curve"/>
    </contour>
  </outline>
</glyph>
<glyph name="greater" format="1">
  <advance width="607"/>
  <unicode hex="003E"/>
  <outline>
    <contour>
      <point x="533" y="306" type="line"/>
      <point x="533" y="370" type="line"/>
      <point x="87" y="599" type="line"/>
      <point x="87" y="516" type="line"/>
      <point x="477" y="322" type="line"/>
      <point x="477" y="350" type="line"/>
      <point x="87" y="163" type="line"/>
      <point x="87" y="85" type="line"/>
    </contour>
  </outline>
</glyph>
<glyph name="O" format="1">
  <advance width="788"/>
  <unicode hex="004F"/>
  <note>
    O
  </note>
  <outline>
    <contour>
      <point x="586" y="-7"/>
      <point x="720" y="138"/>
      <point x="720" y="356" type="curve" smooth="yes"/>
      <point x="720" y="564"/>
      <point x="590" y="703"/>
      <point x="396" y="703" type="curve" smooth="yes"/>
      <point x="199" y="703"/>
      <point x="68" y="559"/>
      <point x="68" y="344" type="curve" smooth="yes"/>
      <point x="68" y="133"/>
      <point x="195" y="-7"/>
      <point x="386" y="-7" type="curve" smooth="yes"/>
    </contour>
    <contour>
      <point x="250" y="65"/>
      <point x="153" y="181"/>
      <point x="153" y="356" type="curve" smooth="yes"/>
      <point x="153" y="520"/>
      <point x="246" y="630"/>
      <point x="386" y="630" type="curve" smooth="yes"/>
      <point x="535" y="630"/>
      <point x="635" y="516"/>
      <point x="635" y="344" type="curve" smooth="yes"/>
      <point x="635" y="177"/>
      <point x="539" y="65"/>
      <point x="396" y="65" type="curve" smooth="yes"/>
    </contour>
    <contour>
      <point x="394" y="347" type="move" name="center"/>
    </contour>
    <contour>
      <point x="475" y="10" type="move" name="ogonek"/>
    </contour>
    <contour>
      <point x="394" y="0" type="move" name="bottom"/>
    </contour>
    <contour>
      <point x="592" y="107" type="move" name="Qtail"/>
    </contour>
    <contour>
      <point x="394" y="694" type="move" name="top"/>
    </contour>
    <contour>
      <point x="23" y="694" type="move" name="topleft"/>
    </contour>
    <contour>
      <point x="709" y="694" type="move" name="topright"/>
    </contour>
  </outline>
</glyph>
<glyph name="i" format="1">
  <advance width="254"/>
  <unicode hex="0069"/>
  <note>
    i
  </note>
  <outline>
    <component base="idotless"/>
    <component base="uni0307" xOffset="-5"/>
    <contour>
      <point x="128" y="0" type="move" name="bottom"/>
    </contour>
  </outline>
</glyph>
<glyph name="p" format="1">
  <advance width="575"/>
  <unicode hex="0070"/>
  <note>
    p
  </note>
  <outline>
    <contour>
      <point x="165" y="-217" type="line"/>
      <point x="165" y="426" type="line"/>
      <point x="141" y="482" type="line"/>
      <point x="85" y="482" type="line"/>
      <point x="85" y="-217" type="line"/>
    </contour>
    <contour>
      <point x="431" y="-10"/>
      <point x="521" y="94"/>
      <point x="521" y="250" type="curve" smooth="yes"/>
      <point x="521" y="395"/>
      <point x="438" y="492"/>
      <point x="314" y="492" type="curve" smooth="yes"/>
      <point x="245" y="492"/>
      <point x="180" y="462"/>
      <point x="139" y="410" type="curve"/>
      <point x="157" y="360" type="line"/>
      <point x="192" y="399"/>
      <point x="242" y="422"/>
      <point x="293" y="422" type="curve" smooth="yes"/>
      <point x="383" y="422"/>
      <point x="441" y="350"/>
      <point x="441" y="240" type="curve" smooth="yes"/>
      <point x="441" y="132"/>
      <point x="388" y="60"/>
      <point x="301" y="60" type="curve" smooth="yes"/>
      <point x="229" y="60"/>
      <point x="169" y="107"/>
      <point x="152" y="178" type="curve"/>
      <point x="119" y="123" type="line"/>
      <point x="141" y="39"/>
      <point x="210" y="-10"/>
      <point x="297" y="-10" type="curve" smooth="yes"/>
    </contour>
    <contour>
      <point x="286" y="482" type="move" name="top"/>
    </contour>
    <contour>
      <point x="286" y="0" type="move" name="bottom"/>
    </contour>
  </outline>
</glyph>
<glyph name="z" format="1">
  <advance width="471"/>
  <unicode hex="007A"/>
  <note>
    z
  </note>
  <outline>
    <contour>
      <point x="432" y="0" type="line"/>
      <point x="432" y="67" type="line"/>
      <point x="120" y="67" type="line"/>
      <point x="132" y="49" type="line"/>
      <point x="420" y="433" type="line"/>
      <point x="420" y="482" type="line"/>
      <point x="42" y="482" type="line"/>
      <point x="42" y="415" type="line"/>
      <point x="341" y="415" type="line"/>
      <point x="329" y="433" type="line"/>
      <point x="42" y="49" type="line"/>
      <point x="42" y="0" type="line"/>
    </contour>
    <contour>
      <point x="235" y="482" type="move" name="top"/>
    </contour>
    <contour>
      <point x="235" y="0" type="move" name="bottom"/>
    </contour>
  </outline>
</glyph>
<glyph name="yen" format="1">
  <advance width="719"/>
  <unicode hex="00A5"/>
  <outline>
    <contour>
      <point x="598" y="128" type="line"/>
      <point x="598" y="188" type="line"/>
      <point x="125" y="188" type="line"/>
      <point x="125" y="128" type="line"/>
    </contour>
    <contour>
      <point x="598" y="298" type="line"/>
      <point x="598" y="358" type="line"/>
      <point x="125" y="358" type="line"/>
      <point x="125" y="298" type="line"/>
    </contour>
    <contour>
      <point x="403" y="0" type="line"/>
      <point x="403" y="309" type="line"/>
      <point x="643" y="694" type="line"/>
      <point x="552" y="694" type="line"/>
      <point x="359" y="372" type="line"/>
      <point x="370" y="372" type="line"/>
      <point x="172" y="694" type="line"/>
      <point x="75" y="694" type="line"/>
      <point x="320" y="309" type="line"/>
      <point x="320" y="0" type="line"/>
    </contour>
  </outline>
</glyph>
<glyph name="brokenbar" format="1">
  <advance width="333"/>
  <unicode hex="00A6"/>
  <outline>
    <contour>
      <point x="206" y="-159" type="line"/>
      <point x="206" y="181" type="line"/>
      <point x="127" y="181" type="line"/>
      <point x="127" y="-159" type="line"/>
    </contour>
    <contour>
      <point x="206" y="412" type="line"/>
      <point x="206" y="741" type="line"/>
      <point x="127" y="741" type="line"/>
      <point x="127" y="412" type="line"/>
    </contour>
  </outline>
</glyph>
<glyph name="ordfeminine" format="1">
  <advance width="75"/>
  <unicode hex="00AA"/>
  <outline>
    <contour>
      <point x="332" y="380" type="line"/>
      <point x="332" y="608" type="line" smooth="yes"/>
      <point x="332" y="699"/>
      <point x="279" y="750"/>
      <point x="182" y="750" type="curve" smooth="yes"/>
      <point x="135" y="750"/>
      <point x="81" y="737"/>
      <point x="40" y="716" type="curve"/>
      <point x="57" y="666" type="line"/>
      <point x="94" y="682"/>
      <point x="135" y="690"/>
      <point x="167" y="690" type="curve" smooth="yes"/>
      <point x="229" y="690"/>
      <point x="262" y="663"/>
      <point x="262" y="612" type="curve" smooth="yes"/>
      <point x="262" y="441" type="line"/>
      <point x="281" y="380" type="line"/>
    </contour>
    <contour>
      <point x="227" y="373"/>
      <point x="284" y="413"/>
      <point x="305" y="485" type="curve"/>
      <point x="283" y="498" type="line"/>
      <point x="264" y="455"/>
      <point x="223" y="429"/>
      <point x="176" y="429" type="curve" smooth="yes"/>
      <point x="133" y="429"/>
      <point x="102" y="452"/>
      <point x="102" y="487" type="curve" smooth="yes"/>
      <point x="102" y="531"/>
      <point x="152" y="549"/>
      <point x="275" y="549" type="curve"/>
      <point x="275" y="591" type="line"/>
      <point x="106" y="591"/>
      <point x="31" y="556"/>
      <point x="31" y="477" type="curve" smooth="yes"/>
      <point x="31" y="414"/>
      <point x="79" y="373"/>
      <point x="153" y="373" type="curve" smooth="yes"/>
    </contour>
  </outline>
</glyph>
<glyph name="degree" format="1">
  <advance width="489"/>
  <unicode hex="00B0"/>
  <outline>
    <contour>
      <point x="329" y="417"/>
      <point x="387" y="475"/>
      <point x="387" y="562" type="curve" smooth="yes"/>
      <point x="387" y="647"/>
      <point x="331" y="704"/>
      <point x="246" y="704" type="curve" smooth="yes"/>
      <point x="160" y="704"/>
      <point x="102" y="646"/>
      <point x="102" y="559" type="curve" smooth="yes"/>
      <point x="102" y="474"/>
      <point x="158" y="417"/>
      <point x="243" y="417" type="curve" smooth="yes"/>
    </contour>
    <contour>
      <point x="199" y="484"/>
      <point x="167" y="515"/>
      <point x="167" y="562" type="curve" smooth="yes"/>
      <point x="167" y="608"/>
      <point x="197" y="639"/>
      <point x="243" y="639" type="curve" smooth="yes"/>
      <point x="290" y="639"/>
      <point x="322" y="607"/>
      <point x="322" y="559" type="curve" smooth="yes"/>
      <point x="322" y="514"/>
      <point x="292" y="484"/>
      <point x="246" y="484" type="curve" smooth="yes"/>
    </contour>
  </outline>
</glyph>
<glyph name="Thorn" format="1">
  <advance width="624"/>
  <unicode hex="00DE"/>
  <outline>
    <contour>
      <point x="189" y="0" type="line"/>
      <point x="189" y="694" type="line"/>
      <point x="106" y="694" type="line"/>
      <point x="106" y="0" type="line"/>
    </contour>
    <contour>
      <point x="312" y="139" type="line" smooth="yes"/>
      <point x="465" y="139"/>
      <point x="566" y="229"/>
      <point x="566" y="365" type="curve" smooth="yes"/>
      <point x="566" y="499"/>
      <point x="467" y="591"/>
      <point x="322" y="591" type="curve" smooth="yes"/>
      <point x="159" y="591" type="line"/>
      <point x="159" y="519" type="line"/>
      <point x="312" y="519" type="line" smooth="yes"/>
      <point x="416" y="519"/>
      <point x="481" y="456"/>
      <point x="481" y="355" type="curve" smooth="yes"/>
      <point x="481" y="261"/>
      <point x="425" y="211"/>
      <point x="322" y="211" type="curve" smooth="yes"/>
      <point x="159" y="211" type="line"/>
      <point x="159" y="139" type="line"/>
    </contour>
  </outline>
</glyph>
<glyph name="Eng" format="1">
  <advance width="778"/>
  <unicode hex="014A"/>
  <outline>
    <contour>
      <point x="184" y="0" type="line"/>
      <point x="184" y="605" type="line"/>
      <point x="167" y="605" type="line"/>
      <point x="601" y="-25" type="line"/>
      <point x="672" y="0" type="line"/>
      <point x="672" y="694" type="line"/>
      <point x="594" y="694" type="line"/>
      <point x="594" y="87" type="line"/>
      <point x="612" y="87" type="line"/>
      <point x="201" y="694" type="line"/>
      <point x="106" y="694" type="line"/>
      <point x="106" y="0" type="line"/>
    </contour>
    <contour>
      <point x="623" y="-201"/>
      <point x="672" y="-117"/>
      <point x="672" y="-23" type="curve" smooth="yes"/>
      <point x="672" y="0" type="line"/>
      <point x="592" y="0" type="line"/>
      <point x="592" y="-35" type="line" smooth="yes"/>
      <point x="592" y="-102"/>
      <point x="564" y="-162"/>
      <point x="522" y="-186" type="curve"/>
      <point x="549" y="-234" type="line"/>
    </contour>
  </outline>
</glyph>
<glyph name="uni0311" format="1">
  <advance width="398"/>
  <unicode hex="0311"/>
  <outline>
    <contour>
      <point x="111" y="631"/>
      <point x="152" y="670"/>
      <point x="200" y="670" type="curve" smooth="yes"/>
      <point x="249" y="670"/>
      <point x="288" y="628"/>
      <point x="295" y="566" type="curve"/>
      <point x="359" y="603" type="line"/>
      <point x="346" y="682"/>
      <point x="286" y="735"/>
      <point x="213" y="735" type="curve" smooth="yes"/>
      <point x="137" y="735"/>
      <point x="78" y="677"/>
      <point x="65" y="591" type="curve"/>
      <point x="104" y="565" type="line"/>
    </contour>
    <contour>
      <point x="210" y="716" type="move" name="top"/>
    </contour>
    <contour>
      <point x="210" y="482" type="move" name="_top"/>
    </contour>
  </outline>
</glyph>
<glyph name="uni0312" format="1">
  <advance width="329"/>
  <unicode hex="0312"/>
  <outline>
    <contour>
      <point x="146" y="732" type="line"/>
      <point x="114" y="688"/>
      <point x="99" y="637"/>
      <point x="99" y="570" type="curve"/>
      <point x="174" y="570" type="line"/>
      <point x="174" y="632"/>
      <point x="186" y="697"/>
      <point x="205" y="732" type="curve"/>
    </contour>
    <contour>
      <point x="151" y="749" type="move" name="top"/>
    </contour>
    <contour>
      <point x="151" y="482" type="move" name="_top"/>
    </contour>
  </outline>
</glyph>
<glyph name="commaaccentcomb" format="1">
  <advance width="329"/>
  <unicode hex="0326"/>
  <outline>
    <component base="_commaaccent"/>
    <contour>
      <point x="166" y="0" type="move" name="_bottom"/>
    </contour>
    <contour>
      <point x="166" y="-231" type="move" name="bottom"/>
    </contour>
  </outline>
</glyph>
<glyph name="uni032E" format="1">
  <advance width="414"/>
  <unicode hex="032E"/>
  <outline>
    <contour>
      <point x="279" y="-212"/>
      <point x="331" y="-171"/>
      <point x="356" y="-93" type="curve"/>
      <point x="317" y="-67" type="line"/>
      <point x="299" y="-121"/>
      <point x="265" y="-149"/>
      <point x="217" y="-149" type="curve" smooth="yes"/>
      <point x="176" y="-149"/>
      <point x="137" y="-116"/>
      <point x="119" y="-67" type="curve"/>
      <point x="55" y="-105" type="line"/>
      <point x="79" y="-169"/>
      <point x="139" y="-212"/>
      <point x="205" y="-212" type="curve" smooth="yes"/>
    </contour>
    <contour>
      <point x="206" y="0" type="move" name="_bottom"/>
    </contour>
    <contour>
      <point x="206" y="-212" type="move" name="bottom"/>
    </contour>
  </outline>
</glyph>
<glyph name="slashlongcomb" format="1">
  <advance width="478"/>
  <unicode hex="0338"/>
  <outline>
    <contour>
      <point x="453" y="514" type="line"/>
      <point x="406" y="543" type="line"/>
      <point x="24" y="-28" type="line"/>
      <point x="67" y="-57" type="line"/>
    </contour>
    <contour>
      <point x="242" y="242" type="move" name="_center"/>
    </contour>
  </outline>
</glyph>
<glyph name="alpha" format="1">
  <advance width="598"/>
  <unicode hex="03B1"/>
  <outline>
    <contour>
      <point x="417" y="24"/>
      <point x="461" y="-6"/>
      <point x="516" y="-6" type="curve" smooth="yes"/>
      <point x="542" y="-6"/>
      <point x="567" y="1"/>
      <point x="586" y="10" type="curve"/>
      <point x="570" y="65" type="line"/>
      <point x="559" y="61"/>
      <point x="546" y="58"/>
      <point x="534" y="58" type="curve" smooth="yes"/>
      <point x="507" y="58"/>
      <point x="491" y="78"/>
      <point x="491" y="131" type="curve" smooth="yes"/>
      <point x="491" y="164"/>
      <point x="491" y="181"/>
      <point x="494" y="268" type="curve" smooth="yes"/>
      <point x="502" y="482" type="line"/>
      <point x="446" y="482" type="line"/>
      <point x="419" y="416" type="line"/>
      <point x="416" y="270" type="line" smooth="yes"/>
      <point x="414" y="159"/>
      <point x="344" y="60"/>
      <point x="259" y="60" type="curve" smooth="yes"/>
      <point x="172" y="60"/>
      <point x="135" y="130"/>
      <point x="135" y="219" type="curve" smooth="yes"/>
      <point x="135" y="341"/>
      <point x="194" y="422"/>
      <point x="283" y="422" type="curve" smooth="yes"/>
      <point x="339" y="422"/>
      <point x="389" y="394"/>
      <point x="419" y="339" type="curve"/>
      <point x="456" y="381" type="line"/>
      <point x="418" y="457"/>
      <point x="357" y="492"/>
      <point x="277" y="492" type="curve" smooth="yes"/>
      <point x="148" y="492"/>
      <point x="55" y="377"/>
      <point x="55" y="212" type="curve" smooth="yes"/>
      <point x="55" y="86"/>
      <point x="120" y="-10"/>
      <point x="244" y="-10" type="curve" smooth="yes"/>
      <point x="322" y="-10"/>
      <point x="401" y="36"/>
      <point x="428" y="133" type="curve"/>
      <point x="417" y="121" type="line"/>
    </contour>
  </outline>
</glyph>
<glyph name="kappa" format="1">
  <advance width="501"/>
  <unicode hex="03BA"/>
  <outline>
    <contour>
      <point x="333" y="17"/>
      <point x="369" y="-10"/>
      <point x="429" y="-10" type="curve" smooth="yes"/>
      <point x="452" y="-10"/>
      <point x="472" y="-4"/>
      <point x="491" y="5" type="curve"/>
      <point x="477" y="61" type="line"/>
      <point x="468" y="58"/>
      <point x="458" y="55"/>
      <point x="444" y="55" type="curve" smooth="yes"/>
      <point x="413" y="55"/>
      <point x="396" y="70"/>
      <point x="369" y="108" type="curve" smooth="yes"/>
      <point x="242" y="286" type="line"/>
      <point x="239" y="237" type="line"/>
      <point x="474" y="479" type="line"/>
      <point x="379" y="479" type="line"/>
      <point x="163" y="257" type="line"/>
      <point x="288" y="81" type="line" smooth="yes"/>
    </contour>
    <contour>
      <point x="165" y="0" type="line"/>
      <point x="165" y="482" type="line"/>
      <point x="85" y="482" type="line"/>
      <point x="85" y="0" type="line"/>
    </contour>
  </outline>
</glyph>
<glyph name="lambda" format="1">
  <advance width="600"/>
  <unicode hex="03BB"/>
  <outline>
    <contour>
      <point x="454" y="482" type="move" name="top"/>
    </contour>
    <contour>
      <point x="454" y="0" type="move" name="bottom"/>
    </contour>
  </outline>
</glyph>
<glyph name="mu" format="1">
  <advance width="584"/>
  <unicode hex="03BC"/>
  <outline>
    <contour>
      <point x="151" y="41" type="line"/>
      <point x="156" y="41" type="line"/>
      <point x="156" y="482" type="line"/>
      <point x="76" y="482" type="line"/>
      <point x="76" y="-217" type="line" smooth="yes"/>
      <point x="156" y="-217" type="line"/>
    </contour>
    <contour>
      <point x="476" y="482" type="line"/>
      <point x="396" y="482" type="line"/>
      <point x="396" y="104" type="line" smooth="yes"/>
      <point x="396" y="34"/>
      <point x="437" y="-10"/>
      <point x="500" y="-10" type="curve" smooth="yes"/>
      <point x="527" y="-10"/>
      <point x="553" y="-2"/>
      <point x="572" y="7" type="curve"/>
      <point x="558" y="63" type="line"/>
      <point x="549" y="59"/>
      <point x="537" y="55"/>
      <point x="524" y="55" type="curve" smooth="yes"/>
      <point x="493" y="55"/>
      <point x="476" y="76"/>
      <point x="476" y="119" type="curve" smooth="yes"/>
    </contour>
    <contour>
      <point x="156" y="482" type="move"/>
      <point x="76" y="482" type="line"/>
    </contour>
    <contour>
      <point x="105" y="149" type="line"/>
      <point x="123" y="28"/>
      <point x="177" y="-10"/>
      <point x="261" y="-10" type="curve" smooth="yes"/>
      <point x="320" y="-10"/>
      <point x="390" y="23"/>
      <point x="436" y="73" type="curve"/>
      <point x="417" y="124" type="line"/>
      <point x="379" y="83"/>
      <point x="326" y="60"/>
      <point x="274" y="60" type="curve" smooth="yes"/>
      <point x="202" y="60"/>
      <point x="156" y="101"/>
      <point x="156" y="179" type="curve"/>
    </contour>
    <contour>
      <point x="454" y="10" type="move" name="ogonek"/>
    </contour>
    <contour>
      <point x="275" y="0" type="move" name="bottom"/>
    </contour>
    <contour>
      <point x="275" y="482" type="move" name="top"/>
    </contour>
  </outline>
</glyph>
<glyph name="nu" format="1">
  <advance width="507"/>
  <unicode hex="03BD"/>
  <outline>
    <contour>
      <point x="338" y="96" type="line" smooth="yes"/>
      <point x="399" y="215"/>
      <point x="445" y="333"/>
      <point x="480" y="482" type="curve"/>
      <point x="400" y="482" type="line"/>
      <point x="371" y="349"/>
      <point x="327" y="230"/>
      <point x="274" y="113" type="curve" smooth="yes"/>
      <point x="230" y="16" type="line"/>
      <point x="274" y="16" type="line"/>
      <point x="115" y="482" type="line"/>
      <point x="26" y="482" type="line"/>
      <point x="211" y="0" type="line"/>
      <point x="289" y="0" type="line"/>
    </contour>
    <contour>
      <point x="254" y="482" type="move" name="top"/>
    </contour>
    <contour>
      <point x="254" y="0" type="move" name="bottom"/>
    </contour>
  </outline>
</glyph>
<glyph name="rho" format="1">
  <advance width="575"/>
  <unicode hex="03C1"/>
  <outline>
    <contour>
      <point x="85" y="-217" type="line"/>
      <point x="165" y="-217" type="line"/>
      <point x="165" y="236" type="line" smooth="yes"/>
      <point x="165" y="359"/>
      <point x="210" y="422"/>
      <point x="294" y="422" type="curve" smooth="yes"/>
      <point x="379" y="422"/>
      <point x="441" y="351"/>
      <point x="441" y="240" type="curve" smooth="yes"/>
      <point x="441" y="132"/>
      <point x="388" y="60"/>
      <point x="301" y="60" type="curve" smooth="yes"/>
      <point x="229" y="60"/>
      <point x="169" y="107"/>
      <point x="152" y="178" type="curve"/>
      <point x="119" y="123" type="line"/>
      <point x="141" y="39"/>
      <point x="210" y="-10"/>
      <point x="297" y="-10" type="curve" smooth="yes"/>
      <point x="431" y="-10"/>
      <point x="521" y="94"/>
      <point x="521" y="250" type="curve" smooth="yes"/>
      <point x="521" y="397"/>
      <point x="440" y="492"/>
      <point x="305" y="492" type="curve" smooth="yes"/>
      <point x="178" y="492"/>
      <point x="85" y="408"/>
      <point x="85" y="252" type="curve" smooth="yes"/>
    </contour>
  </outline>
</glyph>
<glyph name="tau" format="1">
  <advance width="468"/>
  <unicode hex="03C4"/>
  <outline>
    <contour>
      <point x="453" y="415" type="line"/>
      <point x="453" y="482" type="line"/>
      <point x="18" y="482" type="line"/>
      <point x="18" y="415" type="line"/>
    </contour>
    <component base="iota" xOffset="105"/>
    <contour>
      <point x="235" y="482" type="move" name="top"/>
    </contour>
    <contour>
      <point x="275" y="0" type="move" name="bottom"/>
    </contour>
  </outline>
</glyph>
<glyph name="uni0402" format="1">
  <advance width="810"/>
  <unicode hex="0402"/>
  <outline>
    <contour>
      <point x="644" y="0"/>
      <point x="752" y="98"/>
      <point x="752" y="246" type="curve" smooth="yes"/>
      <point x="752" y="364"/>
      <point x="665" y="442"/>
      <point x="534" y="442" type="curve" smooth="yes"/>
      <point x="443" y="442"/>
      <point x="348" y="398"/>
      <point x="298" y="333" type="curve"/>
      <point x="317" y="282" type="line"/>
      <point x="358" y="336"/>
      <point x="437" y="372"/>
      <point x="513" y="372" type="curve" smooth="yes"/>
      <point x="613" y="372"/>
      <point x="672" y="319"/>
      <point x="672" y="230" type="curve" smooth="yes"/>
      <point x="672" y="129"/>
      <point x="596" y="62"/>
      <point x="482" y="62" type="curve"/>
      <point x="482" y="0" type="line"/>
    </contour>
    <contour>
      <point x="348" y="0" type="line"/>
      <point x="348" y="660" type="line"/>
      <point x="265" y="660" type="line"/>
      <point x="265" y="0" type="line"/>
    </contour>
    <contour>
      <point x="590" y="622" type="line"/>
      <point x="590" y="694" type="line"/>
      <point x="44" y="694" type="line"/>
      <point x="44" y="622" type="line"/>
    </contour>
  </outline>
</glyph>
<glyph name="uni041A" format="1">
  <advance width="634"/>
  <unicode hex="041A"/>
  <outline>
    <contour>
      <point x="601" y="0" type="line"/>
      <point x="343" y="380" type="line"/>
      <point x="348" y="358" type="line"/>
      <point x="588" y="694" type="line"/>
      <point x="500" y="694" type="line"/>
      <point x="259" y="361" type="line"/>
      <point x="506" y="0" type="line"/>
    </contour>
    <contour>
      <point x="188" y="0" type="line"/>
      <point x="188" y="694" type="line"/>
      <point x="106" y="694" type="line"/>
      <point x="106" y="0" type="line"/>
    </contour>
    <contour>
      <point x="309" y="323" type="line"/>
      <point x="309" y="395" type="line"/>
      <point x="139" y="395" type="line"/>
      <point x="139" y="323" type="line"/>
    </contour>
    <contour>
      <point x="323" y="694" type="move" name="top"/>
    </contour>
    <contour>
      <point x="565" y="0" type="move" name="bottomright"/>
    </contour>
  </outline>
</glyph>
<glyph name="uni041D" format="1">
  <advance width="749"/>
  <unicode hex="041D"/>
  <outline>
    <component base="H"/>
    <contour>
      <point x="645" y="0" type="move" name="bottomright"/>
    </contour>
  </outline>
</glyph>
<glyph name="uni043A" format="1">
  <advance width="80"/>
  <unicode hex="043A"/>
  <outline>
    <contour>
      <point x="496" y="0" type="line"/>
      <point x="325" y="267" type="line"/>
      <point x="328" y="249" type="line"/>
      <point x="487" y="482" type="line"/>
      <point x="398" y="482" type="line"/>
      <point x="242" y="251" type="line"/>
      <point x="402" y="0" type="line"/>
    </contour>
    <contour>
      <point x="166" y="0" type="line"/>
      <point x="166" y="482" type="line"/>
      <point x="85" y="482" type="line"/>
      <point x="85" y="0" type="line"/>
    </contour>
    <contour>
      <point x="282" y="219" type="line"/>
      <point x="282" y="284" type="line"/>
      <point x="120" y="284" type="line"/>
      <point x="120" y="219" type="line"/>
    </contour>
    <contour>
      <point x="262" y="482" type="move" name="top"/>
    </contour>
    <contour>
      <point x="462" y="0" type="move" name="bottomright"/>
    </contour>
  </outline>
</glyph>
<glyph name="uni0441" format="1">
  <advance width="466"/>
  <unicode hex="0441"/>
  <outline>
    <component base="c"/>
    <contour>
      <point x="266" y="0" type="move" name="bottomright"/>
    </contour>
  </outline>
</glyph>
<glyph name="uni0445" format="1">
  <advance width="498"/>
  <unicode hex="0445"/>
  <outline>
    <component base="x"/>
    <contour>
      <point x="428" y="0" type="move" name="bottomright"/>
    </contour>
  </outline>
</glyph>
<glyph name="uni0463" format="1">
  <advance width="518"/>
  <unicode hex="0463"/>
  <outline>
    <contour>
      <point x="274" y="0" type="line" smooth="yes"/>
      <point x="400" y="0"/>
      <point x="477" y="62"/>
      <point x="477" y="164" type="curve" smooth="yes"/>
      <point x="477" y="259"/>
      <point x="407" y="320"/>
      <point x="304" y="320" type="curve" smooth="yes"/>
      <point x="139" y="320" type="line"/>
      <point x="139" y="255" type="line"/>
      <point x="291" y="255" type="line" smooth="yes"/>
      <point x="353" y="255"/>
      <point x="397" y="214"/>
      <point x="397" y="156" type="curve" smooth="yes"/>
      <point x="397" y="100"/>
      <point x="355" y="67"/>
      <point x="285" y="67" type="curve" smooth="yes"/>
      <point x="168" y="67" type="line"/>
      <point x="168" y="739" type="line"/>
      <point x="92" y="739" type="line"/>
      <point x="92" y="0" type="line"/>
    </contour>
    <contour>
      <point x="311" y="457" type="line"/>
      <point x="311" y="524" type="line"/>
      <point x="24" y="524" type="line"/>
      <point x="24" y="457" type="line"/>
    </contour>
  </outline>
</glyph>
<glyph name="uni046B" format="1">
  <advance width="80"/>
  <unicode hex="046B"/>
  <outline>
    <contour>
      <point x="375" y="251" type="line"/>
      <point x="206" y="446" type="line"/>
      <point x="194" y="416" type="line"/>
      <point x="538" y="416" type="line"/>
      <point x="524" y="446" type="line"/>
      <point x="363" y="259" type="line"/>
      <point x="453" y="259" type="line"/>
      <point x="599" y="415" type="line"/>
      <point x="599" y="486" type="line"/>
      <point x="130" y="486" type="line"/>
      <point x="130" y="415" type="line"/>
      <point x="281" y="251" type="line"/>
    </contour>
    <contour>
      <point x="113" y="0" type="line"/>
      <point x="266" y="226" type="line"/>
      <point x="217" y="198" type="line"/>
      <point x="326" y="198" type="line"/>
      <point x="326" y="0" type="line"/>
      <point x="407" y="0" type="line"/>
      <point x="407" y="198" type="line"/>
      <point x="514" y="198" type="line"/>
      <point x="464" y="226" type="line"/>
      <point x="615" y="0" type="line"/>
      <point x="710" y="0" type="line"/>
      <point x="535" y="266" type="line"/>
      <point x="202" y="266" type="line"/>
      <point x="20" y="0" type="line"/>
    </contour>
  </outline>
</glyph>
<glyph name="uni049C" format="1">
  <advance width="674"/>
  <unicode hex="049C"/>
  <outline>
    <contour>
      <point x="631" y="0" type="line"/>
      <point x="393" y="380" type="line"/>
      <point x="398" y="358" type="line"/>
      <point x="618" y="694" type="line"/>
      <point x="530" y="694" type="line"/>
      <point x="309" y="361" type="line"/>
      <point x="536" y="0" type="line"/>
    </contour>
    <contour>
      <point x="188" y="0" type="line"/>
      <point x="188" y="694" type="line"/>
      <point x="106" y="694" type="line"/>
      <point x="106" y="0" type="line"/>
    </contour>
    <contour>
      <point x="359" y="323" type="line"/>
      <point x="359" y="395" type="line"/>
      <point x="139" y="395" type="line"/>
      <point x="139" y="323" type="line"/>
    </contour>
    <contour>
      <point x="312" y="175" type="line"/>
      <point x="312" y="545" type="line"/>
      <point x="243" y="545" type="line"/>
      <point x="243" y="175" type="line"/>
    </contour>
  </outline>
</glyph>
<glyph name="uni049D" format="1">
  <advance width="526"/>
  <unicode hex="049D"/>
  <outline>
    <contour>
      <point x="506" y="0" type="line"/>
      <point x="345" y="267" type="line"/>
      <point x="348" y="249" type="line"/>
      <point x="497" y="482" type="line"/>
      <point x="408" y="482" type="line"/>
      <point x="262" y="251" type="line"/>
      <point x="412" y="0" type="line"/>
    </contour>
    <contour>
      <point x="166" y="0" type="line"/>
      <point x="166" y="482" type="line"/>
      <point x="85" y="482" type="line"/>
      <point x="85" y="0" type="line"/>
    </contour>
    <contour>
      <point x="302" y="219" type="line"/>
      <point x="302" y="284" type="line"/>
      <point x="120" y="284" type="line"/>
      <point x="120" y="219" type="line"/>
    </contour>
    <contour>
      <point x="270" y="85" type="line"/>
      <point x="270" y="410" type="line"/>
      <point x="207" y="410" type="line"/>
      <point x="207" y="85" type="line"/>
    </contour>
  </outline>
</glyph>
<glyph name="emdash" format="1">
  <advance width="1170"/>
  <unicode hex="2014"/>
  <outline>
    <contour>
      <point x="1085" y="220" type="line"/>
      <point x="1085" y="287" type="line"/>
      <point x="85" y="287" type="line"/>
      <point x="85" y="220" type="line"/>
    </contour>
  </outline>
</glyph>
<glyph name="daggerdbl" format="1">
  <advance width="478"/>
  <unicode hex="2021"/>
  <outline>
    <contour>
      <point x="280" y="0" type="line"/>
      <point x="268" y="175" type="line"/>
      <point x="276" y="346" type="line"/>
      <point x="268" y="506" type="line"/>
      <point x="280" y="694" type="line"/>
      <point x="197" y="694" type="line"/>
      <point x="205" y="506" type="line"/>
      <point x="197" y="346" type="line"/>
      <point x="205" y="175" type="line"/>
      <point x="197" y="0" type="line"/>
    </contour>
    <contour>
      <point x="233" y="146" type="line"/>
      <point x="233" y="202" type="line"/>
      <point x="84" y="209" type="line"/>
      <point x="84" y="139" type="line"/>
    </contour>
    <contour>
      <point x="394" y="209" type="line"/>
      <point x="242" y="202" type="line"/>
      <point x="242" y="146" type="line"/>
      <point x="394" y="139" type="line"/>
    </contour>
    <contour>
      <point x="233" y="492" type="line"/>
      <point x="233" y="548" type="line"/>
      <point x="84" y="555" type="line"/>
      <point x="84" y="485" type="line"/>
    </contour>
    <contour>
      <point x="394" y="555" type="line"/>
      <point x="242" y="548" type="line"/>
      <point x="242" y="492" type="line"/>
      <point x="394" y="485" type="line"/>
    </contour>
  </outline>
</glyph>
<glyph name="arrowright" format="1">
  <advance width="691"/>
  <unicode hex="2192"/>
  <note>
    arrowright
  </note>
  <outline>
    <contour>
      <point x="626" y="319" type="line"/>
      <point x="626" y="329" type="line"/>
      <point x="358" y="590" type="line"/>
      <point x="304" y="535" type="line"/>
      <point x="511" y="355" type="line"/>
      <point x="73" y="355" type="line"/>
      <point x="73" y="288" type="line"/>
      <point x="510" y="288" type="line"/>
      <point x="304" y="105" type="line"/>
      <point x="355" y="54" type="line"/>
    </contour>
  </outline>
</glyph>
<glyph name="minus" format="1">
  <advance width="743"/>
  <unicode hex="2212"/>
  <outline>
    <contour>
      <point x="616" y="296" type="line"/>
      <point x="616" y="365" type="line"/>
      <point x="127" y="365" type="line"/>
      <point x="127" y="296" type="line"/>
    </contour>
  </outline>
</glyph>
<glyph name="radical" format="1">
  <advance width="591"/>
  <unicode hex="221A"/>
  <outline>
    <contour>
      <point x="369" y="-59" type="line"/>
      <point x="519" y="739" type="line"/>
      <point x="432" y="739" type="line"/>
      <point x="321" y="59" type="line"/>
      <point x="245" y="303" type="line"/>
      <point x="67" y="303" type="line"/>
      <point x="67" y="231" type="line"/>
      <point x="183" y="231" type="line"/>
      <point x="289" y="-59" type="line"/>
    </contour>
  </outline>
</glyph>
<glyph name="equivalence" format="1">
  <advance width="719"/>
  <unicode hex="2261"/>
  <outline>
    <contour>
      <point x="592" y="476" type="line"/>
      <point x="592" y="545" type="line"/>
      <point x="127" y="545" type="line"/>
      <point x="127" y="476" type="line"/>
    </contour>
    <contour>
      <point x="592" y="132" type="line"/>
      <point x="592" y="201" type="line"/>
      <point x="127" y="201" type="line"/>
      <point x="127" y="132" type="line"/>
    </contour>
    <contour>
      <point x="592" y="304" type="line"/>
      <point x="592" y="373" type="line"/>
      <point x="127" y="373" type="line"/>
      <point x="127" y="304" type="line"/>
    </contour>
  </outline>
</glyph>
<glyph name="_descender-cy.case.straight" format="1">
  <advance width="267"/>
  <outline>
    <contour>
      <point x="182" y="-178" type="line"/>
      <point x="182" y="52" type="line"/>
      <point x="107" y="52" type="line"/>
      <point x="107" y="-178" type="line"/>
    </contour>
    <contour>
      <point x="145" y="0" type="move" name="_bottomright"/>
    </contour>
  </outline>
</glyph>
<glyph name="_slash.zero" format="1">
  <advance width="456"/>
  <outline>
    <contour>
      <point x="387" y="433" type="line"/>
      <point x="340" y="462" type="line"/>
      <point x="58" y="40" type="line"/>
      <point x="101" y="11" type="line"/>
    </contour>
    <contour>
      <point x="223" y="241" type="move" name="_slash"/>
    </contour>
  </outline>
</glyph>
<glyph name="acutecomb.case" format="1">
  <advance width="283"/>
  <outline>
    <contour>
      <point x="236" y="853" type="line"/>
      <point x="186" y="917" type="line"/>
      <point x="40" y="786" type="line"/>
      <point x="72" y="744" type="line"/>
    </contour>
    <contour>
      <point x="39" y="801" type="move" name="top"/>
    </contour>
    <contour>
      <point x="88" y="694" type="move" name="_top"/>
    </contour>
  </outline>
</glyph>
<glyph name="brevecomb-cy" format="1">
  <advance width="422"/>
  <outline>
    <contour>
      <point x="293" y="565"/>
      <point x="355" y="619"/>
      <point x="365" y="701" type="curve"/>
      <point x="307" y="731" type="line"/>
      <point x="297" y="662"/>
      <point x="262" y="621"/>
      <point x="213" y="621" type="curve" smooth="yes"/>
      <point x="164" y="621"/>
      <point x="125" y="664"/>
      <point x="115" y="729" type="curve"/>
      <point x="56" y="699" type="line"/>
      <point x="70" y="616"/>
      <point x="129" y="565"/>
      <point x="209" y="565" type="curve" smooth="yes"/>
    </contour>
    <contour>
      <point x="207" y="680" type="move" name="top"/>
    </contour>
    <contour>
      <point x="207" y="482" type="move" name="_top"/>
    </contour>
  </outline>
</glyph>
<glyph name="eight.lf" format="1">
  <advance width="596"/>
  <outline>
    <contour>
      <point x="446" y="-10"/>
      <point x="541" y="63"/>
      <point x="541" y="176" type="curve" smooth="yes"/>
      <point x="541" y="401"/>
      <point x="166" y="359"/>
      <point x="166" y="534" type="curve" smooth="yes"/>
      <point x="166" y="595"/>
      <point x="213" y="633"/>
      <point x="290" y="633" type="curve" smooth="yes"/>
      <point x="374" y="633"/>
      <point x="431" y="589"/>
      <point x="431" y="523" type="curve" smooth="yes"/>
      <point x="431" y="458"/>
      <point x="376" y="402"/>
      <point x="295" y="387" type="curve"/>
      <point x="358" y="356" type="line"/>
      <point x="452" y="384"/>
      <point x="510" y="453"/>
      <point x="510" y="537" type="curve" smooth="yes"/>
      <point x="510" y="637"/>
      <point x="427" y="704"/>
      <point x="302" y="704" type="curve" smooth="yes"/>
      <point x="170" y="704"/>
      <point x="83" y="631"/>
      <point x="83" y="521" type="curve" smooth="yes"/>
      <point x="83" y="290"/>
      <point x="456" y="344"/>
      <point x="456" y="169" type="curve" smooth="yes"/>
      <point x="456" y="102"/>
      <point x="405" y="63"/>
      <point x="314" y="63" type="curve" smooth="yes"/>
      <point x="212" y="63"/>
      <point x="144" y="112"/>
      <point x="144" y="185" type="curve" smooth="yes"/>
      <point x="144" y="257"/>
      <point x="207" y="315"/>
      <point x="299" y="328" type="curve"/>
      <point x="245" y="361" type="line"/>
      <point x="133" y="346"/>
      <point x="59" y="271"/>
      <point x="59" y="174" type="curve" smooth="yes"/>
      <point x="59" y="64"/>
      <point x="155" y="-10"/>
      <point x="300" y="-10" type="curve" smooth="yes"/>
    </contour>
  </outline>
</glyph>
<glyph name="hookabovecomb.case" format="1">
  <advance width="309"/>
  <outline>
    <component base="hookabovecomb" yOffset="190"/>
    <contour>
      <point x="144" y="962" type="move" name="top"/>
    </contour>
    <contour>
      <point x="144" y="694" type="move" name="_top"/>
    </contour>
  </outline>
</glyph>
<glyph name="one.dnom" format="1">
  <advance width="74"/>
  <note>
    one
  </note>
  <outline>
    <contour>
      <point x="229" y="53" type="line"/>
      <point x="229" y="472" type="line"/>
      <point x="184" y="472" type="line"/>
      <point x="37" y="385" type="line"/>
      <point x="65" y="333" type="line"/>
      <point x="179" y="395" type="line"/>
      <point x="154" y="418" type="line"/>
      <point x="154" y="53" type="line"/>
    </contour>
    <contour>
      <point x="319" y="0" type="line"/>
      <point x="319" y="64" type="line"/>
      <point x="53" y="64" type="line"/>
      <point x="53" y="0" type="line"/>
    </contour>
  </outline>
</glyph>
<glyph name="uni0308.loclVIET" format="1">
  <advance width="448"/>
  <outline>
    <contour>
      <point x="162" y="550"/>
      <point x="181" y="569"/>
      <point x="181" y="602" type="curve" smooth="yes"/>
      <point x="181" y="635"/>
      <point x="162" y="654"/>
      <point x="129" y="654" type="curve" smooth="yes"/>
      <point x="96" y="654"/>
      <point x="77" y="635"/>
      <point x="77" y="602" type="curve" smooth="yes"/>
      <point x="77" y="569"/>
      <point x="96" y="550"/>
      <point x="129" y="550" type="curve" smooth="yes"/>
    </contour>
    <contour>
      <point x="352" y="550"/>
      <point x="371" y="569"/>
      <point x="371" y="602" type="curve" smooth="yes"/>
      <point x="371" y="635"/>
      <point x="352" y="654"/>
      <point x="319" y="654" type="curve" smooth="yes"/>
      <point x="286" y="654"/>
      <point x="267" y="635"/>
      <point x="267" y="602" type="curve" smooth="yes"/>
      <point x="267" y="569"/>
      <point x="286" y="550"/>
      <point x="319" y="550" type="curve" smooth="yes"/>
    </contour>
    <contour>
      <point x="224" y="604" type="move" name="top"/>
    </contour>
    <contour>
      <point x="224" y="482" type="move" name="_top"/>
    </contour>
  </outline>
</glyph>
<glyph name="uni030A_acutecomb.case" format="1">
  <advance width="437"/>
  <outline>
    <contour>
      <point x="400" y="929" type="line"/>
      <point x="361" y="1001" type="line"/>
      <point x="195" y="897" type="line"/>
      <point x="219" y="851" type="line"/>
    </contour>
    <component base="uni030A.case" xOffset="-13"/>
    <contour>
      <point x="160" y="694" type="move" name="_top"/>
    </contour>
  </outline>
</glyph>
<glyph name="uni030A_acutecomb" format="1">
  <advance width="408"/>
  <outline>
    <component base="uni030A" xOffset="-20"/>
    <component base="acutecomb" xOffset="119" yOffset="130"/>
    <contour>
      <point x="153" y="482" type="move" name="_top"/>
    </contour>
  </outline>
</glyph>
